<svg width="203" height="47" viewBox="0 0 203 47" fill="none" xmlns="http://www.w3.org/2000/svg">
<rect y="2.57788" width="15.2423" height="8.31138" fill="#FFBE0B"/>
<path d="M3.82619 10.7914L11.986 10.9623L20.8231 43.5847L12.5068 43.5761L3.82619 10.7914Z" fill="#3A86FF" fill-opacity="0.8"/>
<path d="M55.0786 10.7478L63.7157 10.8522L72.786 44.3236L64.1032 44.2187L55.0786 10.7478Z" fill="#3A86FF" fill-opacity="0.8"/>
<path d="M26.2853 2.62391L34.5816 2.70355L22.7874 43.6787L14.7712 43.6017L26.2853 2.62391Z" fill="#F72585" fill-opacity="0.8"/>
<path d="M77.7558 2.61539L86.0626 2.65863L74.0669 44.3361L66.0406 44.2944L77.7558 2.61539Z" fill="#F72585" fill-opacity="0.8"/>
<rect x="51.2695" y="2.57788" width="15.2423" height="8.31138" fill="#FFBE0B"/>
<rect x="72.0547" y="2.57788" width="15.2423" height="8.31138" fill="#3A86FF" fill-opacity="0.8"/>
<rect x="39.4917" y="2.57788" width="8.314" height="16.6227" fill="#FFBE0B"/>
<rect x="20.7852" y="2.57788" width="30.4846" height="8.31138" fill="#3A86FF" fill-opacity="0.8"/>
<rect x="39.4917" y="19.2007" width="8.314" height="24.2415" fill="#3A86FF" fill-opacity="0.8"/>
<rect x="36.0273" y="35.1306" width="15.2423" height="8.31137" fill="#F72585" fill-opacity="0.8"/>
<rect x="99.7681" y="2.57788" width="12.471" height="7.61876" fill="#FFBE0B"/>
<path d="M99.3684 2.57796L107.399 4.7291L99.4214 34.4382L90.761 34.4382L99.3684 2.57796Z" fill="#FFBE0B"/>
<path d="M104.618 4.72904L112.648 2.5779L121.246 34.4381L112.239 34.4382L104.618 4.72904Z" fill="#FFBE0B"/>
<path d="M93.9904 22.6636H118.067L120.313 30.9749H91.7661L93.9904 22.6636Z" fill="#3A86FF" fill-opacity="0.8"/>
<rect x="87.2969" y="34.4382" width="15.2423" height="8.31138" fill="#F72585" fill-opacity="0.8"/>
<rect x="109.468" y="34.4382" width="15.2423" height="8.31138" fill="#3A86FF" fill-opacity="0.8"/>
<rect x="137.874" y="34.4382" width="19.3993" height="8.31138" fill="#FFBE0B"/>
<rect x="149.652" y="17.8154" width="7.62117" height="8.31138" fill="#FFBE0B"/>
<path d="M137.874 2.57788H157.536C158.742 2.57788 159.943 2.72571 161.113 3.01806C165.736 4.17365 168.914 8.4158 168.724 13.178L168.675 14.4086C168.484 19.1768 165.386 23.3389 160.873 24.8897L157.273 26.1268V17.8154C158.664 17.6167 159.698 16.4251 159.698 15.0196V14.8736C159.698 13.2394 158.387 11.9074 156.753 11.8814L137.874 11.5819V2.57788Z" fill="#3A86FF" fill-opacity="0.8"/>
<path d="M157.273 17.8154H158.74C159.606 17.8154 160.469 17.9216 161.309 18.1316C166.213 19.3571 169.568 23.8751 169.324 28.9234L169.224 30.9751C168.926 37.1307 164.138 42.1256 158.001 42.6834L157.273 42.7496V34.4382L158.214 33.9158C159.557 33.1695 160.391 31.7533 160.391 30.2162C160.391 28.3945 159.225 26.7773 157.497 26.2014L157.273 26.1268V17.8154Z" fill="#F72585" fill-opacity="0.8"/>
<rect x="141.338" y="2.57788" width="8.31398" height="40.1716" fill="#F72585" fill-opacity="0.8"/>
<rect x="172.515" y="10.8892" width="8.31398" height="24.2415" fill="#FFBE0B"/>
<rect x="187.758" y="35.1306" width="15.2423" height="8.31137" fill="#FFBE0B"/>
<rect x="169.051" y="2.57788" width="15.2423" height="8.31138" fill="#F72585" fill-opacity="0.8"/>
<rect x="169.051" y="35.1306" width="15.2423" height="8.31137" fill="#3A86FF" fill-opacity="0.8"/>
<rect x="187.758" y="2.57788" width="15.2423" height="7.61876" fill="#3A86FF" fill-opacity="0.8"/>
<rect x="191.222" y="2.57788" width="8.314" height="32.5529" fill="#F72585" fill-opacity="0.8"/>
<rect x="180.829" y="18.5081" width="18.7065" height="8.31137" fill="#FFBE0B"/>
</svg>
